<svg width="47" height="50" viewBox="0 0 47 50" fill="none" xmlns="http://www.w3.org/2000/svg">
<path d="M39 25.9666H37.9017L35 30.9601L32.0983 25.9666H31L33.9331 30.9601H31.1311V31.8681H34.5164V33.23H31.1311V34.1379H34.5164V35.9537H35.4836V34.1379H38.8689V33.23H35.4836V31.8681H38.8689V30.9601H36.0669L39 25.9666Z" fill="white"/>
<path fill-rule="evenodd" clip-rule="evenodd" d="M35.5 39.9475C40.7945 39.9475 45 35.8772 45 30.9603C45 26.0434 40.7945 21.9731 35.5 21.9731C30.2055 21.9731 26 26.0434 26 30.9603C26 35.8772 30.2055 39.9475 35.5 39.9475ZM35.5 40.9475C41.299 40.9475 46 36.4761 46 30.9603C46 25.4446 41.299 20.9731 35.5 20.9731C29.701 20.9731 25 25.4446 25 30.9603C25 36.4761 29.701 40.9475 35.5 40.9475Z" fill="white"/>
<path d="M23.2989 15.1471C21.3828 15.1471 19.9431 14.1912 19.3533 12.6503H24.3586V11.818H19.1297C19.0832 11.5421 19.0599 11.2641 19.0598 10.9858C19.0598 10.8485 19.0651 10.7095 19.0735 10.5696H24.3586V9.73738H19.1854C19.5075 8.21933 20.5487 6.82445 23.2989 6.82445C25.3405 6.82445 26.2302 7.50982 27.0759 8.69289L28 8.28508C27.1485 7.09452 25.9896 5.99219 23.2989 5.99219C19.9314 5.99219 18 7.81235 18 10.9858C18 13.9257 20.1789 15.9794 23.2989 15.9794C25.9896 15.9794 27.1485 14.8774 28 13.6865L27.0759 13.2787C26.2302 14.4621 25.3405 15.1471 23.2989 15.1471Z" fill="white"/>
<path fill-rule="evenodd" clip-rule="evenodd" d="M23.5 19.9731C28.7945 19.9731 33 15.9028 33 10.986C33 6.06907 28.7945 1.99878 23.5 1.99878C18.2055 1.99878 14 6.06907 14 10.986C14 15.9028 18.2055 19.9731 23.5 19.9731ZM23.5 20.9731C29.299 20.9731 34 16.5017 34 10.986C34 5.47019 29.299 0.998779 23.5 0.998779C17.701 0.998779 13 5.47019 13 10.986C13 16.5017 17.701 20.9731 23.5 20.9731Z" fill="white"/>
<path d="M15 33.7143C15 31.4097 12.9537 31.1471 11.3096 30.9364C9.5178 30.7066 8.50386 30.5069 8.50386 29.0837C8.50386 27.8893 9.86101 27.4648 11.0233 27.4648C11.6025 27.4476 12.1779 27.5575 12.7019 27.7857C13.226 28.0139 13.6838 28.3537 14.0375 28.7771L14.8798 28.1499C14.501 27.7006 14.0297 27.3247 13.4929 27.044C12.9561 26.7633 12.3644 26.5832 11.7519 26.514V24.968H10.6692V26.4771C8.71227 26.5869 7.42117 27.6056 7.42117 29.0837C7.42117 31.4457 9.49452 31.7119 11.1602 31.9251C12.9212 32.1513 13.9173 32.3455 13.9173 33.7143C13.9173 35.2283 12.2213 35.4545 11.2106 35.4545C9.35377 35.4545 8.5699 34.9732 7.84233 34.1422L7 34.7694C7.42916 35.2911 7.98422 35.7133 8.62115 36.0026C9.25807 36.2918 9.95932 36.4402 10.6692 36.4358V37.9513H11.7519V36.4308C13.769 36.279 15 35.2688 15 33.7143Z" fill="white"/>
<path fill-rule="evenodd" clip-rule="evenodd" d="M11 39.9475C15.9718 39.9475 20 35.9226 20 30.9603C20 25.998 15.9718 21.9731 11 21.9731C6.02823 21.9731 2 25.998 2 30.9603C2 35.9226 6.02823 39.9475 11 39.9475ZM11 40.9475C16.5228 40.9475 21 36.4761 21 30.9603C21 25.4446 16.5228 20.9731 11 20.9731C5.47715 20.9731 1 25.4446 1 30.9603C1 36.4761 5.47715 40.9475 11 40.9475Z" fill="white"/>
<path fill-rule="evenodd" clip-rule="evenodd" d="M8.82104 7.52368L12.0352 8.77061L9.4063 10.6829L8.81806 9.87422L9.32302 9.50691C6.32192 9.89211 4.73196 11.323 4.00985 12.9426C3.13925 14.8951 3.47091 17.2417 4.35015 18.7202L3.49066 19.2313C2.46434 17.5055 2.07922 14.8169 3.09653 12.5353C3.94752 10.6267 5.74143 9.07996 8.77345 8.57783L8.45936 8.45598L8.82104 7.52368Z" fill="white"/>
<path fill-rule="evenodd" clip-rule="evenodd" d="M16.9667 44.6913L15.9838 41.3914L19.1068 42.2938L18.829 43.2538L18.2272 43.0799C20.3711 45.2125 22.4777 45.5905 24.202 45.1678C26.2808 44.6581 27.9345 42.958 28.5655 41.3578L29.4965 41.7243C28.7601 43.5917 26.8691 45.543 24.4408 46.1384C22.4091 46.6365 20.0853 46.1685 17.8292 44.0823L17.9258 44.4066L16.9667 44.6913Z" fill="white"/>
<path fill-rule="evenodd" clip-rule="evenodd" d="M43.0194 18.7505L40.3319 20.9063L39.9883 17.6778L40.9832 17.5716L41.0494 18.1941C42.2162 15.4059 41.7706 13.3151 40.727 11.8804C39.4689 10.1507 37.2678 9.26415 35.5459 9.2854L35.5341 8.28596C37.5435 8.26116 40.0669 9.27222 41.5365 11.2925C42.766 12.983 43.2105 15.3086 42.1289 18.1833L42.3933 17.9712L43.0194 18.7505Z" fill="white"/>
</svg>
