<svg width="38" height="38" viewBox="0 0 38 38" fill="none" xmlns="http://www.w3.org/2000/svg">
<path fill-rule="evenodd" clip-rule="evenodd" d="M15.7985 1.01066C15.7985 1.01069 15.7984 1.01063 15.7985 1.01066C15.6032 0.815519 15.2867 0.815427 15.0915 1.01057L15.0876 1.01438L15.0738 1.02808C15.0612 1.04047 15.0419 1.0593 15.0163 1.08414C14.9649 1.13382 14.8879 1.20752 14.7869 1.30181C14.5848 1.49042 14.2869 1.76123 13.907 2.08685C13.1467 2.73852 12.0606 3.60734 10.7585 4.47543C8.13798 6.22245 4.71289 7.9187 1.33594 7.9187C1.0598 7.9187 0.835938 8.14256 0.835938 8.4187V19.0001H1.33594C0.835938 19.0001 0.835937 18.9997 0.835938 19.0001L0.83594 19.0018L0.835949 19.0046L0.836012 19.0136L0.836452 19.0448C0.83694 19.0714 0.837889 19.1096 0.839734 19.1588C0.843425 19.257 0.850703 19.3992 0.865055 19.5804C0.893753 19.9427 0.950772 20.4617 1.06411 21.0992C1.29067 22.3737 1.74306 24.1258 2.64715 26.047C4.46022 29.8998 8.08018 34.4084 15.2694 37.1041C15.3826 37.1465 15.5073 37.1465 15.6205 37.1041C17.3008 36.4738 18.788 35.7442 20.1039 34.946C20.2368 34.8653 20.3247 34.7275 20.3416 34.5729C20.3586 34.4184 20.3027 34.2648 20.1903 34.1573C19.5559 33.55 19.0277 32.8337 18.6368 32.038C18.1444 31.0387 17.8672 29.9135 17.8672 28.7227C17.8672 24.5717 21.2318 21.2071 25.3828 21.2071C25.8463 21.2071 26.3 21.2489 26.7391 21.3295C27.5304 21.4735 28.2796 21.742 28.9644 22.1136C29.1027 22.1887 29.2683 22.1943 29.4114 22.1286C29.5544 22.063 29.6582 21.9338 29.6915 21.78C29.8718 20.9474 29.9623 20.259 30.0078 19.7759C30.0306 19.5342 30.0421 19.3437 30.0479 19.2119C30.0508 19.146 30.0523 19.0948 30.0531 19.0592L30.0538 19.0176L30.0539 19.0058L30.0539 19.0009C30.0539 19.0008 30.0539 19.0001 29.5539 19.0001L30.0539 19.0009V8.4187C30.0539 8.14256 29.83 7.9187 29.5539 7.9187C26.177 7.9187 22.7519 6.22245 20.1313 4.47543C18.8292 3.60734 17.7431 2.73852 16.9828 2.08685C16.6029 1.76123 16.3051 1.49042 16.103 1.30181C16.002 1.20752 15.9249 1.13382 15.8736 1.08414C15.8479 1.0593 15.8287 1.04047 15.8161 1.02808L15.8022 1.01438L15.7985 1.01066ZM29.0539 18.9999V8.90758C25.5491 8.75272 22.1259 7.00697 19.5766 5.30748C18.2333 4.41195 17.1149 3.51715 16.332 2.8461C15.9551 2.52299 15.6553 2.25121 15.4449 2.05547C15.2346 2.25121 14.9348 2.52299 14.5578 2.8461C13.7749 3.51715 12.6565 4.41195 11.3132 5.30748C8.76399 7.00697 5.34072 8.75272 1.83594 8.90758V18.9996L1.83597 19.0045L1.83628 19.0265C1.83666 19.0469 1.83743 19.0787 1.83903 19.1212C1.84223 19.2064 1.84873 19.3347 1.86193 19.5014C1.88835 19.8349 1.94156 20.3217 2.04867 20.9242C2.26301 22.1299 2.69244 23.7947 3.55197 25.6212C5.25158 29.2329 8.64246 33.5 15.4449 36.1013C16.7705 35.5942 17.9658 35.0244 19.0437 34.4095C18.5258 33.8321 18.0854 33.1835 17.7394 32.4792M29.0539 18.9999L29.0539 19.007L29.0533 19.0377C29.0527 19.066 29.0515 19.1096 29.0489 19.1678C29.0438 19.284 29.0333 19.4579 29.0122 19.6821C28.9818 20.0046 28.9294 20.4306 28.8388 20.9379C28.2329 20.6686 27.5898 20.4679 26.9193 20.3459" fill="white"/>
<path fill-rule="evenodd" clip-rule="evenodd" d="M25.3828 21.207C21.2318 21.207 17.8672 24.5717 17.8672 28.7227C17.8672 29.9134 18.1442 31.0381 18.6366 32.0375C19.0274 32.833 19.5557 33.5497 20.1901 34.157C21.5408 35.4463 23.3689 36.2383 25.3828 36.2383C29.5338 36.2383 32.8984 32.8737 32.8984 28.7227C32.8984 28.2639 32.8573 27.8149 32.7785 27.3792L26.1475 34.0095C25.9523 34.2048 25.6357 34.2048 25.4404 34.0095L19.6855 28.2546C19.4902 28.0593 19.4902 27.7428 19.6855 27.5475L21.8438 25.3892C22.0391 25.194 22.3556 25.194 22.5509 25.3892L25.794 28.6323L30.8554 23.5716C30.3091 22.9907 29.6706 22.4971 28.9644 22.1136M16.8672 28.7227C16.8672 24.0194 20.6795 20.207 25.3828 20.207C25.9063 20.207 26.4203 20.2543 26.9193 20.3458C27.8169 20.5091 28.6656 20.8136 29.4413 21.2346C30.3938 21.7519 31.2374 22.4457 31.9258 23.2728C32.0912 23.4715 32.0778 23.7635 31.895 23.9462L26.1475 29.693C25.9523 29.8882 25.6357 29.8882 25.4404 29.693L22.1973 26.4499L20.7462 27.9011L25.794 32.9489L32.7013 26.0423C32.8255 25.9181 33.0059 25.8682 33.1763 25.9109C33.3467 25.9536 33.4822 26.0826 33.5333 26.2507C33.7708 27.0335 33.8984 27.8639 33.8984 28.7227C33.8984 33.4259 30.0861 37.2383 25.3828 37.2383C23.1011 37.2383 21.0283 36.3397 19.4994 34.8801C18.7816 34.1931 18.1827 33.3815 17.7394 32.4792C17.1809 31.3456 16.8672 30.0701 16.8672 28.7227ZM25.3828 21.207C25.8463 21.207 26.3 21.2488 26.7391 21.3294ZM26.7391 21.3294C27.5304 21.4734 28.2797 21.742 28.9644 22.1136Z" fill="white"/>
<path fill-rule="evenodd" clip-rule="evenodd" d="M34.0736 20.3535C34.2688 20.1582 34.5854 20.1582 34.7807 20.3535L36.9389 22.5118C37.0327 22.6055 37.0854 22.7327 37.0854 22.8653C37.0854 22.9979 37.0327 23.1251 36.9389 23.2189L33.4084 26.7495L26.1475 34.0095C25.9523 34.2048 25.6357 34.2048 25.4404 34.0095L19.6855 28.2546C19.5917 28.1608 19.5391 28.0337 19.5391 27.9011C19.5391 27.7684 19.5917 27.6413 19.6855 27.5475L21.8438 25.3892C22.0391 25.194 22.3556 25.194 22.5509 25.3892L25.794 28.6323L31.1879 23.2391L34.0736 20.3535ZM34.4271 21.4141L26.1475 29.693C25.9523 29.8882 25.6357 29.8882 25.4404 29.693L22.1973 26.4499L20.7462 27.9011L25.794 32.9489L27.5987 31.1441L35.8783 22.8653L34.4271 21.4141Z" fill="white"/>
<path fill-rule="evenodd" clip-rule="evenodd" d="M15.7983 4.14636C15.7046 4.05265 15.5775 4 15.4449 4C15.3123 4 15.1852 4.05263 15.0914 4.14634C15.0915 4.1463 15.0914 4.14638 15.0914 4.14634L15.0885 4.14926L15.0773 4.16027C15.0672 4.17029 15.0515 4.18559 15.0306 4.20584C14.9888 4.24633 14.9258 4.30656 14.8432 4.3837C14.6778 4.53802 14.4339 4.75983 14.1226 5.02665C13.4995 5.56074 12.6094 6.27277 11.5424 6.98407C9.39223 8.41752 6.59429 9.8002 3.84448 9.8002C3.56834 9.8002 3.34448 10.0241 3.34448 10.3002V19.0001H3.84448C3.34448 19.0001 3.34448 18.9998 3.34448 19.0001L3.34448 19.0017L3.34449 19.0042L3.34455 19.012L3.34492 19.0385C3.34533 19.061 3.34613 19.093 3.34767 19.1339C3.35075 19.2159 3.3568 19.334 3.3687 19.4842C3.3925 19.7847 3.43972 20.2143 3.53346 20.7416C3.72082 21.7955 4.09481 23.2438 4.84212 24.8318C6.34162 28.0182 9.33443 31.7429 15.2693 33.9684C15.3825 34.0108 15.5072 34.0108 15.6204 33.9684C16.6386 33.5866 17.5716 33.1601 18.4258 32.6984C18.6622 32.5706 18.7553 32.2787 18.6365 32.0376C18.1441 31.0382 17.8671 29.9135 17.8671 28.7228C17.8671 24.5718 21.2318 21.2071 25.3828 21.2071C25.8462 21.2071 26.2999 21.249 26.739 21.3296C27.0092 21.3792 27.2689 21.2014 27.3204 20.9316C27.4316 20.3494 27.4876 19.8725 27.5159 19.5385C27.53 19.3715 27.5371 19.24 27.5408 19.1488C27.5426 19.1031 27.5435 19.0675 27.544 19.0426L27.5445 19.0132L27.5445 19.0046L27.5445 19.0018L27.5445 19.0004C27.5445 19.0004 27.5445 19.0001 27.0445 19.0001L27.5445 19.0004V10.3002C27.5445 10.0241 27.3207 9.8002 27.0445 9.8002C24.2947 9.8002 21.497 8.41752 19.347 6.98408C18.2801 6.27278 17.3901 5.56075 16.7671 5.02667C16.4558 4.75985 16.2119 4.53803 16.0466 4.38372C15.9639 4.30658 15.901 4.24635 15.8592 4.20586C15.8382 4.18561 15.8226 4.17031 15.8124 4.16029L15.8013 4.14928L15.7983 4.14636C15.7983 4.14637 15.7983 4.14636 15.7983 4.14636ZM26.5445 19V10.7868C23.6681 10.6343 20.8717 9.20254 18.7923 7.81611C17.6842 7.07736 16.7619 6.33934 16.1163 5.78589C15.8399 5.54897 15.6137 5.34544 15.4449 5.18958C15.276 5.34544 15.0498 5.54898 14.7734 5.78591C14.1277 6.33936 13.2052 7.07738 12.0971 7.81612C10.0175 9.20255 7.22091 10.6343 4.34448 10.7868M26.5445 19L26.5445 19.0036L26.5442 19.0232C26.5438 19.0415 26.5431 19.0702 26.5416 19.1089C26.5385 19.1862 26.5322 19.3028 26.5194 19.4544C26.5017 19.6639 26.4716 19.9397 26.4203 20.2699C26.0799 20.2283 25.7335 20.2071 25.3828 20.2071C20.6795 20.2071 16.8671 24.0195 16.8671 28.7228C16.8671 29.8973 17.1055 31.0172 17.5366 32.036C16.8881 32.3672 16.1919 32.6785 15.4449 32.9654" fill="white"/>
</svg>
