<svg width="26" height="31" viewBox="0 0 26 31" fill="none" xmlns="http://www.w3.org/2000/svg">
<path fill-rule="evenodd" clip-rule="evenodd" d="M17.2685 0.5H25.5343L24.9812 8.82809L22.7563 6.59463L15.5537 12.9743L14.8907 12.2257L22.7992 5.22076L24.1299 6.55653L24.4657 1.5H19.3982L21.2436 3.72314L15.23 9.25695L11.6667 6.12704L1.69528 14.8855L3.27852 16.7927L6.4478 14.009L7.10773 14.7603L3.16589 18.2227L0.304688 14.776L11.6667 4.79605L15.2144 7.91229L19.8672 3.63071L17.2685 0.5ZM11.0356 9.25705C11.9823 9.32493 13.0554 10.0233 13.0554 11.2615V18.3461H19.2221C20.4525 18.3461 21.2693 18.8721 21.7617 19.5586C22.2357 20.2195 22.3887 20.9973 22.3887 21.5231V28.6615C22.3887 29.3591 22.0881 29.8437 21.6816 30.1375C21.3005 30.413 20.858 30.5 20.5554 30.5V29.5C20.6972 29.5 20.9214 29.4532 21.0958 29.3271C21.2449 29.2193 21.3887 29.0348 21.3887 28.6615V21.5231C21.3887 21.1565 21.2751 20.5959 20.9491 20.1414C20.6415 19.7125 20.125 19.3461 19.2221 19.3461H12.0554V11.2615C12.0554 10.7152 11.5729 10.2981 10.9641 10.2545C10.6763 10.2339 10.4237 10.3087 10.2512 10.453C10.09 10.5878 9.94429 10.8284 9.94429 11.2615V23.9181L9.34586 23.7979C8.93638 23.7157 8.2948 23.524 7.65668 23.2097C7.02585 22.899 6.34276 22.4413 5.91666 21.7997L5.89946 21.7738L5.88559 21.7459C5.83692 21.6482 5.71427 21.5246 5.53117 21.4424C5.35144 21.3617 5.17111 21.3468 5.03294 21.3884C4.91391 21.4242 4.77416 21.5162 4.67265 21.7709C4.56414 22.0432 4.50159 22.5039 4.60597 23.2373C4.7762 24.4333 5.48513 26.8149 9.29467 29.5962L8.70502 30.4038C4.69233 27.4743 3.82671 24.859 3.61594 23.3782C3.49807 22.55 3.54663 21.8953 3.74369 21.4007C3.94776 20.8886 4.30804 20.5623 4.74459 20.4309C5.162 20.3052 5.5928 20.3739 5.94084 20.5302C6.27473 20.6801 6.58712 20.9352 6.76404 21.2677C7.05137 21.6875 7.54611 22.0405 8.09856 22.3126C8.39064 22.4565 8.6838 22.5704 8.94429 22.6558V11.2615C8.94429 10.5793 9.18748 10.0391 9.60958 9.68596C10.0205 9.34225 10.5457 9.22192 11.0356 9.25705Z" fill="white"/>
</svg>
