<svg width="26" height="26" viewBox="0 0 26 26" fill="none" xmlns="http://www.w3.org/2000/svg">
<path fill-rule="evenodd" clip-rule="evenodd" d="M0.833374 13C0.833374 6.29087 6.2909 0.833344 13 0.833344C19.7092 0.833344 25.1667 6.29087 25.1667 13V17.8335C25.1667 19.1781 24.1244 20.2485 22.813 20.4614C22.579 23.0957 20.361 25.1667 17.6667 25.1667H10.1667V20.6667H15.8334V21.8333H17.6667C18.6774 21.8333 19.5 21.0107 19.5 20V12.8332C19.5 12.3912 19.6756 11.9672 19.9882 11.6547C20.3008 11.3421 20.7247 11.1665 21.1667 11.1665H21.6298C20.7844 7.17385 17.2392 4.16668 13 4.16668C8.76093 4.16668 5.21569 7.17385 4.37032 11.1665H4.83337C5.2754 11.1665 5.69932 11.3421 6.01189 11.6547C6.32445 11.9672 6.50004 12.3912 6.50004 12.8332V18.8333C6.50004 19.2754 6.32445 19.6993 6.01189 20.0119C5.69932 20.3244 5.2754 20.5 4.83337 20.5H3.66671C2.13929 20.5 0.833374 19.3386 0.833374 17.8335V13ZM13 1.83334C6.84318 1.83334 1.83337 6.84315 1.83337 13V17.8335C1.83337 18.7178 2.62046 19.5 3.66671 19.5H4.83337C5.01019 19.5 5.17975 19.4298 5.30478 19.3048C5.4298 19.1797 5.50004 19.0102 5.50004 18.8333V12.8332C5.50004 12.6564 5.4298 12.4868 5.30478 12.3618C5.17975 12.2367 5.01019 12.1665 4.83337 12.1665H3.19707L3.27912 11.5954C3.96248 6.83892 8.05436 3.16668 13 3.16668C17.9457 3.16668 22.0376 6.83892 22.721 11.5954L22.803 12.1665H21.1667C20.9899 12.1665 20.8203 12.2367 20.6953 12.3618C20.5703 12.4868 20.5 12.6564 20.5 12.8332V20C20.5 21.563 19.2297 22.8333 17.6667 22.8333H14.8334V21.6667H11.1667V24.1667H17.6667C19.9642 24.1667 21.8334 22.2975 21.8334 20V19.5H22.3334C23.3796 19.5 24.1667 18.7178 24.1667 17.8335V13C24.1667 6.84315 19.1569 1.83334 13 1.83334Z" fill="white"/>
</svg>
