<svg width="24" height="28" viewBox="0 0 24 28" fill="none" xmlns="http://www.w3.org/2000/svg">
<path fill-rule="evenodd" clip-rule="evenodd" d="M8.77013 3.20145C9.17091 1.82374 10.3416 0.5 12 0.5C13.6588 0.5 14.8285 1.8236 15.2329 3.19967L14.7531 3.34062L15.2325 3.1984C15.2678 3.31746 15.4072 3.47269 15.565 3.53751C16.6517 3.98488 17.8948 4.68508 18.8623 5.95054C19.8339 7.22142 20.4919 9.0151 20.4919 11.5844C20.4919 14.2638 20.7734 15.7926 21.2213 16.8778C21.6128 17.8266 22.1376 18.4615 22.8116 19.2768C22.9103 19.3962 23.0121 19.5194 23.1172 19.648C24.0705 20.8158 23.1933 22.5 21.6556 22.5H16.5V23C16.5 24.1935 16.0259 25.3381 15.182 26.182C14.3381 27.0259 13.1935 27.5 12 27.5C10.8065 27.5 9.66194 27.0259 8.81803 26.182C7.97411 25.3381 7.50001 24.1935 7.50001 23V22.5H2.35064C0.811616 22.5 -0.0775544 20.8232 0.882847 19.648C0.987999 19.5193 1.0899 19.396 1.1886 19.2766C1.86254 18.4613 2.38732 17.8265 2.77921 16.8777C3.2275 15.7924 3.50971 14.2635 3.51126 11.5841C3.51131 9.01268 4.16851 7.2193 5.13995 5.94907C6.10729 4.68422 7.35027 3.98549 8.43775 3.53767C8.59819 3.47175 8.73517 3.31991 8.77013 3.20145ZM8.50001 22.5V23C8.50001 23.9283 8.86876 24.8185 9.52514 25.4749C10.1815 26.1313 11.0718 26.5 12 26.5C12.9283 26.5 13.8185 26.1313 14.4749 25.4749C15.1313 24.8185 15.5 23.9283 15.5 23V22.5H8.50001ZM16 21.5H2.35064C1.56341 21.5 1.28758 20.733 1.65717 20.2808C1.75677 20.1589 1.85579 20.0394 1.9538 19.9211C2.62522 19.1109 3.25032 18.3566 3.70347 17.2595C4.22377 15.9998 4.50968 14.3209 4.51126 11.5847C4.51126 9.19185 5.11905 7.62253 5.93428 6.55656C6.75362 5.48523 7.81899 4.87396 8.81833 4.46241C9.2114 4.30086 9.59583 3.93909 9.72978 3.48268L9.73014 3.48143C10.0534 2.36945 10.9338 1.5 12 1.5C13.0662 1.5 13.9465 2.3689 14.2734 3.48158L14.2738 3.48285C14.4072 3.93251 14.789 4.29976 15.1849 4.46246C15.1848 4.46242 15.185 4.46249 15.1849 4.46246M16 21.5H21.6556C22.4317 21.5 22.7119 20.7328 22.3427 20.2806C22.2432 20.1588 22.1443 20.0395 22.0464 19.9213C21.3749 19.111 20.7497 18.3566 20.2969 17.2593C19.777 15.9996 19.4919 14.3206 19.4919 11.5844C19.4919 9.19428 18.8836 7.62483 18.0679 6.5579C17.2481 5.48567 16.1825 4.87321 15.1849 4.46246" fill="white"/>
</svg>
