<svg width="30" height="32" viewBox="0 0 30 32" fill="none" xmlns="http://www.w3.org/2000/svg">
<g clip-path="url(#clip0_72_616)">
<path d="M24.8937 16.5744H24.1927L22.3405 19.7618L20.4884 16.5744H19.7874L21.6596 19.7618H19.871V20.3414H22.0319V21.2107H19.871V21.7902H22.0319V22.9492H22.6492V21.7902H24.8101V21.2107H22.6492V20.3414H24.8101V19.7618H23.0215L24.8937 16.5744Z" fill="white"/>
<path fill-rule="evenodd" clip-rule="evenodd" d="M22.6596 25.1366C25.8566 25.1366 28.3618 22.6837 28.3618 19.7618C28.3618 16.84 25.8566 14.3871 22.6596 14.3871C19.4627 14.3871 16.9575 16.84 16.9575 19.7618C16.9575 22.6837 19.4627 25.1366 22.6596 25.1366ZM22.6596 26.1366C26.3611 26.1366 29.3618 23.2825 29.3618 19.7618C29.3618 16.2411 26.3611 13.3871 22.6596 13.3871C18.9582 13.3871 15.9575 16.2411 15.9575 19.7618C15.9575 23.2825 18.9582 26.1366 22.6596 26.1366Z" fill="white"/>
</g>
<path d="M14.8715 9.66844C13.6485 9.66844 12.7295 9.05831 12.3531 8.07474H15.548V7.5435H12.2104C12.1807 7.36739 12.1658 7.18993 12.1657 7.01227C12.1657 6.92462 12.1691 6.8359 12.1745 6.74666H15.548V6.21542H12.2459C12.4515 5.24645 13.1161 4.35611 14.8715 4.35611C16.1747 4.35611 16.7426 4.79358 17.2824 5.54873L17.8722 5.28842C17.3287 4.52849 16.589 3.82487 14.8715 3.82487C12.7221 3.82487 11.4893 4.98668 11.4893 7.01227C11.4893 8.88885 12.88 10.1997 14.8715 10.1997C16.589 10.1997 17.3287 9.49632 17.8722 8.73612L17.2824 8.47582C16.7426 9.23123 16.1747 9.66844 14.8715 9.66844Z" fill="white"/>
<path fill-rule="evenodd" clip-rule="evenodd" d="M14.9997 12.3871C18.1967 12.3871 20.7019 9.93409 20.7019 7.01227C20.7019 4.09045 18.1967 1.63748 14.9997 1.63748C11.8028 1.63748 9.29761 4.09045 9.29761 7.01227C9.29761 9.93409 11.8028 12.3871 14.9997 12.3871ZM14.9997 13.3871C18.7012 13.3871 21.7019 10.533 21.7019 7.01227C21.7019 3.49157 18.7012 0.637482 14.9997 0.637482C11.2983 0.637482 8.29761 3.49157 8.29761 7.01227C8.29761 10.533 11.2983 13.3871 14.9997 13.3871Z" fill="white"/>
<g clip-path="url(#clip1_72_616)">
<path d="M9.5744 21.5197C9.5744 20.0487 8.26826 19.881 7.21886 19.7465C6.07512 19.5999 5.42793 19.4724 5.42793 18.564C5.42793 17.8016 6.29419 17.5307 7.03607 17.5307C7.40578 17.5196 7.77303 17.5899 8.10754 17.7355C8.44206 17.8811 8.73425 18.098 8.96003 18.3683L9.49769 17.968C9.2559 17.6812 8.95504 17.4413 8.61241 17.2621C8.26978 17.0829 7.89212 16.9679 7.50116 16.9238V15.937H6.81008V16.9002C5.56096 16.9703 4.73685 17.6205 4.73685 18.564C4.73685 20.0717 6.06026 20.2415 7.12349 20.3776C8.24753 20.522 8.88332 20.646 8.88332 21.5197C8.88332 22.4861 7.80075 22.6305 7.15562 22.6305C5.97042 22.6305 5.47008 22.3232 5.00568 21.7928L4.46802 22.1932C4.74195 22.5262 5.09625 22.7957 5.50279 22.9803C5.90934 23.1649 6.35695 23.2596 6.81008 23.2568V24.2242H7.50116V23.2536C8.78864 23.1567 9.5744 22.5119 9.5744 21.5197Z" fill="white"/>
<path fill-rule="evenodd" clip-rule="evenodd" d="M7.02116 25.1366C9.99531 25.1366 12.4041 22.7291 12.4041 19.7618C12.4041 16.7946 9.99531 14.3871 7.02116 14.3871C4.04701 14.3871 1.63818 16.7946 1.63818 19.7618C1.63818 22.7291 4.04701 25.1366 7.02116 25.1366ZM7.02116 26.1366C10.5464 26.1366 13.4041 23.2825 13.4041 19.7618C13.4041 16.2411 10.5464 13.3871 7.02116 13.3871C3.49594 13.3871 0.638184 16.2411 0.638184 19.7618C0.638184 23.2825 3.49594 26.1366 7.02116 26.1366Z" fill="white"/>
</g>
<path fill-rule="evenodd" clip-rule="evenodd" d="M5.6958 4.63368L8.05643 5.54948L6.11034 6.96507L5.62731 6.30101C3.99033 6.59953 3.12767 7.43077 2.72459 8.33479C2.19542 9.5216 2.39745 10.9576 2.93207 11.8565L2.07257 12.3677C1.39087 11.2214 1.13538 9.44341 1.81126 7.92756C2.36977 6.67495 3.52738 5.67505 5.42885 5.32178L5.6958 4.63368Z" fill="white"/>
<path fill-rule="evenodd" clip-rule="evenodd" d="M10.6564 28.5778L9.93455 26.1544L12.2461 26.8224L12.0178 27.6114C13.2567 28.7195 14.4426 28.8908 15.4049 28.6549C16.6686 28.3451 17.6812 27.3053 18.0649 26.3323L18.996 26.6988C18.5069 27.939 17.2569 29.23 15.6437 29.6255C14.3106 29.9523 12.81 29.6517 11.365 28.3675L10.6564 28.5778Z" fill="white"/>
<path fill-rule="evenodd" clip-rule="evenodd" d="M27.5726 12.1094L25.599 13.6925L25.3447 11.303L26.1625 11.2156C26.7215 9.65151 26.4321 8.49026 25.8498 7.68959C25.085 6.63813 23.7383 6.09473 22.6912 6.10765L22.6794 5.1082C24.014 5.09174 25.683 5.7596 26.6592 7.10172C27.466 8.21082 27.7544 9.71204 27.11 11.5335L27.5726 12.1094Z" fill="white"/>
<defs>
<clipPath id="clip0_72_616">
<rect width="14.0426" height="14.0245" fill="white" transform="translate(15.9575 12.7496)"/>
</clipPath>
<clipPath id="clip1_72_616">
<rect width="14.0426" height="14.0245" fill="white" transform="translate(0 12.7496)"/>
</clipPath>
</defs>
</svg>
