<svg width="33" height="26" viewBox="0 0 33 26" fill="none" xmlns="http://www.w3.org/2000/svg">
<path fill-rule="evenodd" clip-rule="evenodd" d="M0.221223 18.1507L4.34622 25.189C4.80384 25.9634 5.81575 26.23 6.60208 25.7857L11.9336 22.7515H18.9771C20.7947 22.7515 22.2771 21.2916 22.2771 19.5015C23.644 19.5015 24.7521 18.4102 24.7521 17.064V14.625H25.1646C25.8478 14.625 26.4021 14.0791 26.4021 13.4063V10.9688C26.4 10.2934 25.8483 9.7043 25.1625 9.7043H17.325V12.3378C17.325 14.2502 15.9287 15.9941 13.9967 16.1855C11.7748 16.4055 9.90002 14.6915 9.90002 12.5481V6.41875L8.63622 7.16676C6.35252 8.5211 4.95208 10.9535 4.95208 13.584L0.827082 15.9352C0.0407545 16.3795 -0.236652 17.3763 0.221223 18.1507ZM8.90002 8.18029C7.06178 9.38167 5.95208 11.4079 5.95208 13.584V14.165L1.31909 16.8058C1.00842 16.9813 0.915991 17.361 1.08202 17.6418L1.08398 17.6451L5.20714 24.6803C5.20739 24.6807 5.20764 24.6811 5.20788 24.6815C5.38566 24.9808 5.79262 25.0938 6.10914 24.9156C6.10946 24.9155 6.10979 24.9153 6.11012 24.9151L11.669 21.7515H18.9771C20.2568 21.7515 21.2771 20.7249 21.2771 19.5015V18.5015H22.2771C23.1062 18.5015 23.7521 17.8436 23.7521 17.064V13.625H25.1646C25.3099 13.625 25.4021 13.5125 25.4021 13.4063V10.971C25.4016 10.9059 25.3739 10.8343 25.3196 10.7782C25.2672 10.7239 25.2108 10.7043 25.1625 10.7043H18.325V12.3378C18.325 14.7012 16.5994 16.9325 14.0953 17.1806C11.2957 17.4579 8.90002 15.2934 8.90002 12.5481V8.18029ZM21.3331 4.24492H17.8422C16.0765 4.24492 14.3473 4.73187 12.8474 5.64992C12.6571 5.77063 12.55 5.97176 12.55 6.175V12.5938C12.55 13.1508 13.0096 13.625 13.6125 13.625C14.2156 13.625 14.675 13.1506 14.675 12.5938V7.0793H25.1625C27.2054 7.0793 28.9016 8.64509 29.0408 10.6555L31.6996 9.14163L31.7195 9.13147C31.969 9.00376 32.0951 8.65912 31.9149 8.35021C31.9148 8.35015 31.9149 8.35028 31.9149 8.35021L27.7949 1.31616C27.7947 1.31575 27.7945 1.31534 27.7942 1.31493C27.6165 1.01571 27.2096 0.902676 26.8931 1.08074C26.8927 1.08094 26.8923 1.08115 26.892 1.08136L21.3331 4.24492ZM26.4 0.210742C27.1863 -0.233594 28.1983 0.0330074 28.6559 0.807422L32.7783 7.84571C33.232 8.62266 32.9639 9.61797 32.175 10.0217L28.05 12.3703V10.9231C28.05 9.35239 26.7573 8.0793 25.1625 8.0793H15.675V12.5938C15.675 13.717 14.7536 14.625 13.6125 14.625C12.472 14.625 11.55 13.7175 11.55 12.5938V6.175C11.55 5.61641 11.8439 5.09844 12.3198 4.80035C13.9786 3.78371 15.8905 3.24492 17.8422 3.24492H21.0685L26.4 0.210742Z" fill="white"/>
</svg>
