<svg width="1691" height="392" fill="none" xmlns="http://www.w3.org/2000/svg"><path fill-rule="evenodd" clip-rule="evenodd" d="M86.4 70.787a1512.312 1512.312 0 0 1-5.035 8.226C64.78 105.856 44.908 140.98 29.18 169.398a4466.15 4466.15 0 0 0-19.55 35.715 3713.042 3713.042 0 0 0-7.621 14.152l-.133.25-.442-.235c-.441-.235-.44-.235-.44-.236l.133-.25.395-.738a3685.663 3685.663 0 0 1 7.229-13.419c4.861-8.98 11.69-21.512 19.554-35.723 15.73-28.421 35.61-63.562 52.21-90.426 1.66-2.688 3.33-5.43 5.019-8.202 9.726-15.971 20.059-32.938 32.619-46.081C132.914 8.758 150.811-1.472 174.486 1.36c23.635 2.828 37.772 16.248 47.985 34.236 7.33 12.91 12.664 28.23 18.052 43.701 2.1 6.03 4.208 12.083 6.445 18.026 5.326 14.148 12.341 37.691 20.226 64.155 3.926 13.177 8.067 27.078 12.324 40.904 6.406 20.807 13.073 41.452 19.663 59.23 6.594 17.788 13.096 32.669 19.165 41.971 12.68 19.438 27.935 41.292 42.44 58.282 7.253 8.496 14.306 15.761 20.746 20.897 6.462 5.154 12.22 8.094 16.895 8.094 33.971 0 59.177-16.418 79.533-41.123 20.37-24.723 35.851-57.707 50.352-90.756 1.941-4.422 3.864-8.846 5.779-13.251 12.383-28.486 24.427-56.193 38.658-77.697 16.435-24.835 35.874-41.53 62.251-41.53 26.281 0 51.106 12.008 74.453 29.947 23.349 17.94 45.267 41.849 65.739 65.728 5.82 6.788 11.522 13.572 17.106 20.217 14.074 16.746 27.403 32.606 40.004 45.414 8.797 8.941 17.219 16.373 25.267 21.567 8.051 5.195 15.69 8.127 22.931 8.127 29.36 0 48.689-10.027 64.828-24.984 8.08-7.488 15.363-16.216 22.709-25.559 2.247-2.858 4.5-5.775 6.784-8.731 5.175-6.697 10.505-13.596 16.264-20.467 5.918-7.059 10.805-13.568 15.335-19.607 1.81-2.416 3.57-4.758 5.31-7.029 6.09-7.94 12.02-15.009 19.62-21.352 15.2-12.694 36.99-22.425 79.99-30.601 43.19-8.21 84.61 13.113 120.21 38.439 14.03 9.982 27.18 20.605 39.2 30.308 3.23 2.61 6.38 5.153 9.44 7.6 14.47 11.561 26.95 20.927 37 25.02 10.05 4.094 26.45 7.184 48.42 8.495 21.95 1.311 49.43.843 81.59-2.155 64.34-5.996 147.42-22.112 242.64-54.351l.32.948c-95.28 32.261-178.45 48.395-242.86 54.399-32.21 3.002-59.74 3.472-81.75 2.157-22-1.313-38.54-4.411-48.74-8.567-10.2-4.157-22.8-13.626-37.24-25.165-3.07-2.453-6.23-5-9.46-7.613-12.01-9.701-25.14-20.298-39.14-30.261-35.57-25.304-76.69-46.4-119.44-38.271-42.93 8.162-64.53 17.851-79.54 30.386-7.51 6.272-13.39 13.271-19.47 21.193-1.73 2.256-3.48 4.588-5.29 6.999-4.53 6.046-9.442 12.589-15.378 19.671-5.747 6.855-11.057 13.728-16.226 20.419-2.287 2.959-4.546 5.883-6.803 8.754-7.353 9.353-14.676 18.131-22.815 25.675-16.302 15.107-35.868 25.25-65.508 25.25-7.509 0-15.339-3.037-23.473-8.287-8.138-5.251-16.618-12.742-25.438-21.706-12.63-12.838-25.999-28.745-40.084-45.504-5.579-6.638-11.27-13.41-17.072-20.178-20.466-23.871-42.328-47.712-65.589-65.585-23.262-17.873-47.875-29.74-73.844-29.74-25.873 0-45.05 16.349-61.417 41.082-14.179 21.425-26.183 49.04-38.572 77.536a4235.77 4235.77 0 0 1-5.783 13.262c-14.497 33.039-30.026 66.145-50.496 90.989-20.485 24.862-45.95 41.488-80.305 41.488-5.039 0-11.029-3.136-17.518-8.312-6.511-5.193-13.612-12.512-20.884-21.03-14.546-17.038-29.828-38.934-42.517-58.384-6.134-9.404-12.669-24.376-19.265-42.171-6.599-17.804-13.273-38.47-19.681-59.283-4.267-13.86-8.415-27.781-12.343-40.968-7.877-26.436-14.873-49.918-20.187-64.033-2.259-6-4.379-12.088-6.486-18.138-5.375-15.437-10.663-30.621-17.945-43.447-10.108-17.806-24.008-30.958-47.234-33.737-23.261-2.784-40.865 7.236-55.491 22.542-12.478 13.057-22.746 29.916-32.477 45.891Z" fill="url(#a)"/><defs><linearGradient id="a" x1="1690.43" y1="205.153" x2="-1.565" y2="205.049" gradientUnits="userSpaceOnUse"><stop stop-color="#D46BFE"/><stop offset="1" stop-color="#5F1DE7" stop-opacity=".01"/></linearGradient></defs></svg>