<svg width="199" height="67" viewBox="0 0 199 67" fill="none" xmlns="http://www.w3.org/2000/svg">
<path fill-rule="evenodd" clip-rule="evenodd" d="M0.0313721 13.2601V0.350098H49.0314V13.2601H31.6614V66.0001H17.5814V13.2601H0.0313721ZM19.5814 11.2601V64.0001H29.6614V11.2601H47.0314V2.3501H2.03137V11.2601H19.5814ZM46.11 66.0001V17.0001H59.83V20.8616C64.1031 18.4778 68.4139 16.8627 72.76 16.0446L75.13 15.5985V29.4635L73.5178 29.7821C68.4604 30.7819 64.1997 32.0641 60.7095 33.609L60.6835 33.6204L59.92 33.9328V66.0001H46.11ZM57.92 32.5901L59.9 31.7801C63.56 30.1601 67.97 28.8401 73.13 27.8201V18.0101C72.4633 18.1356 71.7966 18.2811 71.13 18.4465C67.3633 19.3815 63.5966 20.9546 59.83 23.166C59.1633 23.5573 58.4966 23.9687 57.83 24.4001V19.0001H48.11V64.0001H57.92V32.5901ZM105.899 17.0001H119.62V66.0001H105.899V64.504C102.393 66.1315 99.0041 66.9901 95.7495 66.9901C89.3 66.9901 84.2869 65.2699 81.6422 61.1139L81.6378 61.107L81.6335 61.1001C79.2121 57.2258 78.1795 50.8733 78.1795 42.4901V17.0001H91.9895V42.5801C91.9895 45.2326 92.1005 47.4016 92.3118 49.1066C92.5273 50.8446 92.8316 51.9619 93.1398 52.599C93.5325 53.4106 94.606 54.2601 97.6395 54.2601C100.627 54.2601 103.317 53.7083 105.737 52.6325L105.772 52.6172L105.899 52.566V17.0001ZM107.899 53.9201L106.549 54.4601C103.85 55.6601 100.88 56.2601 97.6395 56.2601C94.3395 56.2601 92.2395 55.3301 91.3395 53.4701C90.4395 51.6101 89.9895 47.9801 89.9895 42.5801V19.0001H80.1795V42.4901C80.1795 50.8301 81.2295 56.6801 83.3295 60.0401C85.4295 63.3401 89.5695 64.9901 95.7495 64.9901C98.8966 64.9901 102.28 64.0883 105.899 62.2847C106.558 61.9563 107.225 61.5982 107.899 61.2101V64.0001H117.62V19.0001H107.899V53.9201ZM162.677 30.5529L160.458 30.252C153.385 29.2929 148.371 28.8301 145.337 28.8301C142.191 28.8301 140.474 29.2395 139.729 29.7006L139.718 29.7079L139.706 29.7151C139.213 30.0109 138.877 30.4614 138.877 31.5101C138.877 32.0486 138.985 32.3753 139.103 32.578C139.212 32.7671 139.392 32.9587 139.736 33.1336C140.233 33.3683 141.198 33.6863 142.753 34.0677C144.285 34.4434 146.277 34.8544 148.739 35.2996C153.882 36.158 157.906 37.5848 160.433 39.8229C163.18 42.2564 164.257 46.2857 164.257 51.2201C164.257 56.4161 162.553 60.5821 158.848 63.2736C155.36 65.8513 150.457 66.9901 144.437 66.9901C140.614 66.9901 135.87 66.4601 130.238 65.4313L125.71 64.7011L126.245 52.5488L128.411 52.8377C135.606 53.7969 140.681 54.2601 143.717 54.2601C146.847 54.2601 148.624 53.8557 149.449 53.3683L149.466 53.3585L149.483 53.349C150.139 52.9782 150.537 52.4169 150.537 51.2201C150.537 50.5572 150.415 50.1454 150.279 49.8932C150.156 49.6637 149.975 49.4754 149.662 49.319L149.613 49.2941L149.564 49.2666C149.198 49.057 148.349 48.7416 146.822 48.3712C145.35 48.0139 143.406 47.6411 140.974 47.2554L140.96 47.2533L140.946 47.2509C135.967 46.3903 132.022 45.0289 129.363 43C126.347 40.6983 125.157 36.7317 125.157 31.8701C125.157 26.753 126.917 22.6381 130.657 19.9053L130.664 19.9L130.671 19.8947C134.27 17.3147 138.757 16.1001 143.987 16.1001C147.98 16.1001 152.811 16.5979 158.456 17.5691L158.476 17.5726L162.943 18.4372L162.677 30.5529ZM130.577 63.4601C136.157 64.4801 140.777 64.9901 144.437 64.9901C150.257 64.9901 154.667 63.8801 157.667 61.6601C160.727 59.4401 162.257 55.9601 162.257 51.2201C162.257 46.4801 161.207 43.1801 159.107 41.3201C157.007 39.4601 153.437 38.1101 148.397 37.2701C143.417 36.3701 140.237 35.5901 138.857 34.9301C137.537 34.2701 136.877 33.1301 136.877 31.5101C136.877 29.8901 137.477 28.7201 138.677 28.0001C139.937 27.2201 142.157 26.8301 145.337 26.8301C148.21 26.8301 152.675 27.222 158.732 28.0057C159.379 28.0893 160.044 28.1775 160.727 28.2701L160.907 20.0801L158.117 19.5401C152.537 18.5801 147.827 18.1001 143.987 18.1001C139.067 18.1001 135.017 19.2401 131.837 21.5201C128.717 23.8001 127.157 27.2501 127.157 31.8701C127.157 36.4901 128.297 39.6701 130.577 41.4101C132.857 43.1501 136.427 44.4401 141.287 45.2801C146.207 46.0601 149.297 46.8101 150.557 47.5301C151.877 48.1901 152.537 49.4201 152.537 51.2201C152.537 53.0201 151.847 54.3101 150.467 55.0901C149.147 55.8701 146.897 56.2601 143.717 56.2601C140.838 56.2601 136.311 55.8667 130.137 55.0798C129.492 54.9975 128.828 54.911 128.147 54.8201L127.787 63.0101L130.577 63.4601ZM197.894 29.3701H185.474V47.1701C185.474 48.9587 185.541 50.4014 185.664 51.5167C185.793 52.6701 185.968 53.3283 186.108 53.6394C186.145 53.7204 186.218 53.8439 186.522 53.976C186.866 54.1255 187.455 54.2568 188.389 54.26L197.689 53.9198L198.351 65.4505L196.635 65.7835C192.584 66.5695 189.372 66.9901 187.074 66.9901C181.774 66.9901 177.494 65.7902 174.998 62.7487L174.988 62.7367L174.979 62.7246C173.782 61.2194 172.994 59.1982 172.495 56.8303C171.992 54.4449 171.754 51.5741 171.754 48.2501V29.3701H165.994V17.0001H171.754V3.9501H185.474V17.0001H197.894V29.3701ZM183.474 19.0001V5.9501H173.754V19.0001H167.994V27.3701H173.754V48.2501C173.754 54.7301 174.684 59.1401 176.544 61.4801C178.464 63.8201 181.974 64.9901 187.074 64.9901C189.174 64.9901 192.234 64.6001 196.254 63.8201L195.804 55.9901L188.424 56.2601C186.204 56.2601 184.824 55.6601 184.284 54.4601C183.744 53.2601 183.474 50.8301 183.474 47.1701V27.3701H195.894V19.0001H183.474Z" fill="white"/>
</svg>
